<svg fill="none" height="211" viewBox="0 0 211 211" width="211" xmlns="http://www.w3.org/2000/svg" xmlns:xlink="http://www.w3.org/1999/xlink"><clipPath id="a"><path d="m0 0h211v211h-211z"/></clipPath><g clip-path="url(#a)"><path d="m211 24.1776c0-13.3372-10.84-24.1776-24.178-24.1776h-162.6444c-13.3372 0-24.1776 10.8404-24.1776 24.1776v162.6444c0 13.338 10.8404 24.178 24.1776 24.178h162.6444c13.338 0 24.178-10.84 24.178-24.178z" fill="#4caf50"/><g fill="#ffd953"><path d="m101.104 140.666c-1.6874 0-3.3761-.641-4.6591-1.933l-28.574-28.573c-2.5756-2.577-2.5756-6.753 0-9.328 2.5773-2.5761 6.7532-2.5761 9.3288 0l23.9133 23.913 43.695-43.6946c2.576-2.5757 6.752-2.5757 9.327 0 2.576 2.5756 2.576 6.7515 0 9.3288l-48.353 48.3538c-1.303 1.292-2.99 1.933-4.678 1.933z"/><path d="m186.822 211h-162.6444c-13.3372 0-24.1776-10.84-24.1776-24.178v-162.6444c0-13.3372 10.8404-24.1776 24.1776-24.1776h162.6444c13.338 0 24.178 10.8404 24.178 24.1776v162.6444c0 13.338-10.84 24.178-24.178 24.178zm-162.6444-197.8125c-6.0577 0-10.9901 4.9324-10.9901 10.9901v162.6444c0 6.058 4.9324 10.99 10.9901 10.99h162.6444c6.058 0 10.99-4.932 10.99-10.99v-162.6444c0-6.0577-4.932-10.9901-10.99-10.9901z"/></g></g></svg>